<svg width="180" height="58" viewBox="0 0 180 58" version="1.1" xmlns="http://www.w3.org/2000/svg" xmlns:xlink="http://www.w3.org/1999/xlink">
<title>Logo_nekra_BW</title>
<desc>Created using Figma</desc>
<g id="Canvas" transform="translate(-31 -5)">
<g id="Logo_nekra_BW">
<g id="g10">
<g id="g12">
<g id="g14">
<g id="g20">
<g id="path22">
<use xlink:href="#path0_fill" transform="matrix(1.25 0 0 -1.25 89.1912 30.3569)" fill="#EDEEE9"/>
</g>
</g>
<g id="g24">
<g id="path26">
<use xlink:href="#path1_fill" transform="matrix(1.25 0 0 -1.25 97.5691 30.3568)" fill="#EDEEE9"/>
</g>
</g>
<g id="g28">
<g id="path30">
<use xlink:href="#path2_fill" transform="matrix(1.25 0 0 -1.25 105.364 30.489)" fill="#EDEEE9"/>
</g>
</g>
<g id="g32">
<g id="path34">
<use xlink:href="#path3_fill" transform="matrix(1.25 0 0 -1.25 112.177 30.4891)" fill="#EDEEE9"/>
</g>
</g>
<g id="g36">
<g id="path38">
<use xlink:href="#path4_fill" transform="matrix(1.25 0 0 -1.25 120.874 30.3568)" fill="#EDEEE9"/>
</g>
</g>
<g id="g40">
<g id="path42">
<use xlink:href="#path5_fill" transform="matrix(1.25 0 0 -1.25 128.668 30.4892)" fill="#EDEEE9"/>
</g>
</g>
<g id="g44">
<g id="path46">
<use xlink:href="#path6_fill" transform="matrix(1.25 0 0 -1.25 135.707 30.3565)" fill="#EDEEE9"/>
</g>
</g>
<g id="g48">
<g id="path50">
<use xlink:href="#path7_fill" transform="matrix(1.25 0 0 -1.25 142.898 30.4891)" fill="#EDEEE9"/>
</g>
</g>
<g id="g52">
<g id="path54">
<use xlink:href="#path8_fill" transform="matrix(1.25 0 0 -1.25 150.633 30.3569)" fill="#EDEEE9"/>
</g>
</g>
<g id="g56">
<g id="path58">
<use xlink:href="#path9_fill" transform="matrix(1.25 0 0 -1.25 156.956 30.489)" fill="#EDEEE9"/>
</g>
</g>
<g id="g60">
<g id="path62">
<use xlink:href="#path10_fill" transform="matrix(1.25 0 0 -1.25 89.0456 46.2442)" fill="#EDEEE9"/>
</g>
</g>
<g id="g64">
<g id="path66">
<use xlink:href="#path11_fill" transform="matrix(1.25 0 0 -1.25 97.185 46.2449)" fill="#EDEEE9"/>
</g>
</g>
<g id="g68">
<g id="path70">
<use xlink:href="#path12_fill" transform="matrix(1.25 0 0 -1.25 105.801 46.2441)" fill="#EDEEE9"/>
</g>
</g>
<g id="g72">
<g id="path74">
<use xlink:href="#path13_fill" transform="matrix(1.25 0 0 -1.25 112.615 46.2444)" fill="#EDEEE9"/>
</g>
</g>
<g id="g76">
<g id="path78">
<use xlink:href="#path14_fill" transform="matrix(1.25 0 0 -1.25 121.775 46.2441)" fill="#EDEEE9"/>
</g>
</g>
<g id="g80">
<g id="path82">
<use xlink:href="#path15_fill" transform="matrix(1.25 0 0 -1.25 127.66 46.2441)" fill="#EDEEE9"/>
</g>
</g>
<g id="g84">
<g id="path86">
<use xlink:href="#path16_fill" transform="matrix(1.25 0 0 -1.25 137.297 46.2441)" fill="#EDEEE9"/>
</g>
</g>
<g id="g88">
<g id="path90">
<use xlink:href="#path17_fill" transform="matrix(1.25 0 0 -1.25 144.11 46.2444)" fill="#EDEEE9"/>
</g>
</g>
<g id="g92">
<g id="path94">
<use xlink:href="#path18_fill" transform="matrix(1.25 0 0 -1.25 153.078 46.3769)" fill="#EDEEE9"/>
</g>
</g>
<g id="g96">
<g id="path98">
<use xlink:href="#path19_fill" transform="matrix(1.25 0 0 -1.25 160.813 46.2444)" fill="#EDEEE9"/>
</g>
</g>
<g id="g100">
<g id="path102">
<use xlink:href="#path20_fill" transform="matrix(1.25 0 0 -1.25 167.732 48.7603)" fill="#EDEEE9"/>
</g>
</g>
<g id="g104">
<g id="path106">
<use xlink:href="#path21_fill" transform="matrix(1.25 0 0 -1.25 175.169 46.3769)" fill="#EDEEE9"/>
</g>
</g>
<g id="g108">
<g id="path110">
<use xlink:href="#path22_fill" transform="matrix(1.25 0 0 -1.25 182.558 46.3765)" fill="#EDEEE9"/>
</g>
</g>
<g id="g112">
<g id="path114">
<use xlink:href="#path23_fill" transform="matrix(1.25 0 0 -1.25 189.91 46.3768)" fill="#EDEEE9"/>
</g>
</g>
<g id="g116">
<g id="path118">
<use xlink:href="#path24_fill" transform="matrix(1.25 0 0 -1.25 197.903 46.2448)" fill="#EDEEE9"/>
</g>
</g>
<g id="g120">
<g id="path122">
<use xlink:href="#path25_fill" transform="matrix(1.25 0 0 -1.25 205.207 46.3769)" fill="#EDEEE9"/>
</g>
</g>
<g id="path124">
<use xlink:href="#path26_fill" transform="matrix(1.25 0 0 -1.25 31 47.0093)" fill="#EDEEE9"/>
</g>
<g id="path126">
<use xlink:href="#path27_fill" transform="matrix(1.25 0 0 -1.25 44.2073 51.4332)" fill="#EDEEE9"/>
</g>
<g id="path128">
<use xlink:href="#path28_fill" transform="matrix(1.25 0 0 -1.25 57.4143 62.4869)" fill="#EDEEE9"/>
</g>
<g id="path130">
<use xlink:href="#path29_fill" transform="matrix(1.25 0 0 -1.25 70.6216 47.0093)" fill="#EDEEE9"/>
</g>
</g>
</g>
</g>
</g>
</g>
<defs>
<path id="path0_fill" d="M 4.46467 2.24554C 4.46467 2.42191 4.43443 2.58994 4.37464 2.7486C 4.3145 2.90761 4.22621 3.04544 4.10942 3.16174C 3.99262 3.27839 3.84767 3.37005 3.67456 3.43705C 3.50145 3.50406 3.2981 3.53774 3.06486 3.53774L 1.00771 3.53774L 1.00771 0.953349L 3.06486 0.953349C 3.2981 0.953349 3.50145 0.987025 3.67456 1.05403C 3.84767 1.12104 3.99262 1.21304 4.10942 1.32934C 4.22621 1.44599 4.3145 1.58348 4.37464 1.74248C 4.43443 1.90114 4.46467 2.06918 4.46467 2.24554ZM 3.22406 4.49108C 3.58453 4.49108 3.90433 4.43276 4.1838 4.31645C 4.46293 4.1998 4.69792 4.03906 4.8891 3.83423C 5.07994 3.62939 5.22454 3.39123 5.32361 3.11939C 5.42268 2.84755 5.47204 2.55627 5.47204 2.24554C 5.47204 1.93482 5.42268 1.64354 5.32361 1.3717C 5.22454 1.09986 5.07994 0.861694 4.8891 0.656859C 4.69792 0.452025 4.46293 0.291629 4.1838 0.174977C 3.90433 0.0583257 3.58453 2.25144e-08 3.22406 2.25144e-08L 0.286428 2.25144e-08C 0.208564 2.25144e-08 0.141476 0.0281213 0.0848161 0.0850584C 0.0281561 0.141301 4.77366e-08 0.208306 4.77366e-08 0.286074L 4.77366e-08 7.12824C 4.77366e-08 7.20601 0.0281561 7.27302 0.0848161 7.32961C 0.141476 7.38619 0.208564 7.41432 0.286428 7.41432L 4.71912 7.41432C 4.79698 7.41432 4.86233 7.38619 4.91552 7.32961C 4.96835 7.27302 4.99477 7.20601 4.99477 7.12824L 4.99477 6.74704C 4.99477 6.66927 4.96835 6.60227 4.91552 6.54603C 4.86233 6.48944 4.79698 6.46097 4.71912 6.46097L 1.00771 6.46097L 1.00771 4.49108L 3.22406 4.49108Z"/>
<path id="path1_fill" d="M 4.24185 0C 4.16399 0 4.0969 0.0281214 4.04059 0.0847112C 3.98358 0.141301 3.95543 0.208306 3.95543 0.286074L 3.95543 3.83422L 0.869366 0.116652C 0.812706 0.0388838 0.73519 0 0.636122 0L 0.275653 0C 0.197789 0 0.132438 0.0281214 0.0796021 0.0847112C 0.0264182 0.141301 -2.38683e-08 0.208306 -2.38683e-08 0.286074L -2.38683e-08 5.22189C -2.38683e-08 5.29931 0.0281563 5.36632 0.0848164 5.42291C 0.141129 5.4795 0.208564 5.50762 0.286081 5.50762L 0.67853 5.50762C 0.756394 5.50762 0.823482 5.4795 0.880142 5.42291C 0.936455 5.36632 0.964958 5.29931 0.964958 5.22189L 0.964958 1.6418L 4.05102 5.39131C 4.08647 5.42638 4.11984 5.45485 4.15182 5.47603C 4.18346 5.4972 4.2276 5.50762 4.28426 5.50762L 4.6343 5.50762C 4.71217 5.50762 4.77891 5.4795 4.83592 5.42291C 4.89223 5.36632 4.92038 5.29931 4.92038 5.22189L 4.92038 0.286074C 4.92038 0.208306 4.89223 0.141301 4.83592 0.0847112C 4.77891 0.0281214 4.71217 0 4.6343 0L 4.24185 0Z"/>
<path id="path2_fill" d="M 2.42839 4.17307C 1.93339 4.17307 1.56597 4.02274 1.32577 3.72278C 1.08523 3.42282 0.964958 3.02912 0.964958 2.54203C 0.964958 2.05459 1.08523 1.6609 1.32577 1.36093C 1.56597 1.06063 1.93339 0.910646 2.42839 0.910646C 2.92338 0.910646 3.2908 1.06063 3.53134 1.36093C 3.77154 1.6609 3.89181 2.05459 3.89181 2.54203C 3.89181 3.02912 3.77154 3.42282 3.53134 3.72278C 3.2908 4.02274 2.92338 4.17307 2.42839 4.17307ZM 3.56298 7.5518C 3.56298 7.30461 3.5084 7.0786 3.39891 6.87411C 3.28906 6.66927 3.15141 6.46965 2.98525 6.27558C 2.8191 6.08116 2.63521 5.88361 2.4336 5.68225C 2.23234 5.48123 2.03594 5.26043 1.8451 5.02053C 2.02169 5.06289 2.21635 5.08406 2.42839 5.08406C 2.7819 5.08406 3.10692 5.02713 3.40412 4.91464C 3.70098 4.80146 3.95716 4.63551 4.17303 4.41679C 4.38854 4.19772 4.55644 3.93109 4.67671 3.61689C 4.79698 3.3027 4.85712 2.94441 4.85712 2.54203C 4.85712 2.16777 4.79698 1.82337 4.67671 1.50918C 4.55644 1.19498 4.38854 0.926616 4.17303 0.704075C 3.95716 0.481882 3.70098 0.308641 3.40412 0.185393C 3.10692 0.0617975 2.7819 -1.58925e-07 2.42839 -1.58925e-07C 2.07487 -1.58925e-07 1.74986 0.0617975 1.45265 0.185393C 1.15579 0.308641 0.899608 0.481882 0.683744 0.704075C 0.468227 0.926616 0.300333 1.19498 0.180061 1.50918C 0.0597885 1.82337 -2.12163e-08 2.16777 -2.12163e-08 2.54203C -2.12163e-08 3.08571 0.0636122 3.5603 0.190837 3.9665C 0.318061 4.3727 0.478656 4.72716 0.673316 5.03094C 0.867628 5.33438 1.07619 5.59927 1.29901 5.82529C 1.52183 6.0513 1.73004 6.2596 1.9247 6.45021C 2.11902 6.64081 2.27996 6.82273 2.40718 6.99597C 2.53441 7.16886 2.59802 7.35391 2.59802 7.5518C 2.59802 7.62957 2.62652 7.69657 2.68283 7.75316C 2.73949 7.8094 2.80658 7.83787 2.88445 7.83787L 3.2769 7.83787C 3.35476 7.83787 3.42185 7.8094 3.47851 7.75316C 3.53482 7.69657 3.56298 7.62957 3.56298 7.5518Z"/>
<path id="path3_fill" d="M 1.30422 5.5288C 1.36054 5.58539 1.42797 5.61351 1.50549 5.61351L 5.07959 5.61351C 5.1571 5.61351 5.22454 5.58539 5.2812 5.5288C 5.33751 5.47221 5.36636 5.4052 5.36636 5.32778L 5.36636 0.391963C 5.36636 0.314196 5.33751 0.24719 5.2812 0.1906C 5.22454 0.13401 5.1571 0.105889 5.07959 0.105889L 4.68679 0.105889C 4.60928 0.105889 4.54184 0.13401 4.48553 0.1906C 4.42921 0.24719 4.40071 0.314196 4.40071 0.391963L 4.40071 4.70286L 2.18437 4.70286L 2.18437 1.93829C 2.18437 1.64874 2.15447 1.38558 2.09434 1.14916C 2.0342 0.912382 1.93513 0.70963 1.79748 0.540208C 1.65948 0.370785 1.47733 0.238164 1.25139 0.143037C 1.02475 0.0475634 0.745618 -6.62188e-08 0.413305 -6.62188e-08L 0.286081 -6.62188e-08C 0.208217 -6.62188e-08 0.141129 0.0281214 0.0844686 0.0847113C 0.0278086 0.140954 -3.24874e-08 0.207959 -3.24874e-08 0.285727L -3.24874e-08 0.624919C -3.24874e-08 0.702339 0.0278086 0.769692 0.0844686 0.825935C 0.141129 0.882525 0.208217 0.910646 0.286081 0.910646L 0.413305 0.910646C 0.738666 0.910646 0.954183 1.00438 1.0602 1.19151C 1.16622 1.37829 1.21941 1.63104 1.21941 1.94905L 1.21941 5.32778C 1.21941 5.4052 1.24756 5.47221 1.30422 5.5288Z"/>
<path id="path4_fill" d="M 4.24185 0C 4.16364 0 4.0969 0.0281214 4.04024 0.0847112C 3.98358 0.141301 3.95543 0.208306 3.95543 0.286074L 3.95543 3.83422L 0.869366 0.116652C 0.812706 0.0388838 0.73519 0 0.636122 0L 0.275305 0C 0.197789 0 0.132439 0.0281214 0.078907 0.0847112C 0.0264182 0.141301 -2.38683e-08 0.208306 -2.38683e-08 0.286074L -2.38683e-08 5.22189C -2.38683e-08 5.29931 0.0278087 5.36632 0.0848164 5.42291C 0.141129 5.4795 0.208217 5.50762 0.286081 5.50762L 0.67853 5.50762C 0.756394 5.50762 0.823135 5.4795 0.880142 5.42291C 0.936455 5.36632 0.964611 5.29931 0.964611 5.22189L 0.964611 1.6418L 4.05102 5.39131C 4.08613 5.42638 4.11915 5.45485 4.15182 5.47603C 4.18346 5.4972 4.22725 5.50762 4.28426 5.50762L 4.63396 5.50762C 4.71217 5.50762 4.77891 5.4795 4.83557 5.42291C 4.89223 5.36632 4.92038 5.29931 4.92038 5.22189L 4.92038 0.286074C 4.92038 0.208306 4.89223 0.141301 4.83557 0.0847112C 4.77891 0.0281214 4.71217 0 4.63396 0L 4.24185 0Z"/>
<path id="path5_fill" d="M 4.08265 2.41496C 4.0969 2.53509 4.10455 2.6816 4.10455 2.85449C 4.10455 3.02739 4.0969 3.17771 4.08265 3.30478C 4.06145 3.51656 4.01521 3.7141 3.945 3.89776C 3.87409 4.08142 3.77502 4.24042 3.64814 4.37443C 3.52057 4.50844 3.36484 4.61433 3.1813 4.6921C 2.99742 4.76987 2.7819 4.80875 2.53441 4.80875C 2.28691 4.80875 2.07139 4.76987 1.88751 4.6921C 1.70328 4.61433 1.54824 4.50844 1.42102 4.37443C 1.29414 4.24042 1.19473 4.08142 1.12381 3.89776C 1.0529 3.7141 1.00702 3.51656 0.986162 3.30478C 0.971911 3.17771 0.964958 3.02739 0.964958 2.85449C 0.964958 2.6816 0.971911 2.53509 0.986162 2.41496C 1.00702 2.20319 1.0529 2.0053 1.12381 1.82164C 1.19473 1.63833 1.29414 1.47932 1.42102 1.34496C 1.54824 1.21095 1.70328 1.10507 1.88751 1.0273C 2.07139 0.94953 2.28691 0.910993 2.53441 0.910993C 2.7819 0.910993 2.99742 0.94953 3.1813 1.0273C 3.36484 1.10507 3.52057 1.21095 3.64814 1.34496C 3.77502 1.47932 3.87409 1.63833 3.945 1.82164C 4.01521 2.0053 4.06145 2.20319 4.08265 2.41496ZM 2.53441 5.7194C 2.91608 5.7194 3.25569 5.66142 3.55255 5.54477C 3.84941 5.42846 4.10455 5.26737 4.3159 5.06289C 4.52794 4.85805 4.69618 4.60912 4.81958 4.31611C 4.94333 4.02309 5.01945 3.70334 5.04796 3.35755C 5.05491 3.29402 5.05838 3.21799 5.05838 3.1298L 5.05838 2.85449L 5.05838 2.57918C 5.05838 2.49065 5.05491 2.41844 5.04796 2.36219C 5.01215 2.00877 4.93464 1.68763 4.81436 1.39808C 4.69409 1.10854 4.52794 0.861347 4.3159 0.656859C 4.10455 0.451677 3.84941 0.291282 3.55255 0.17463C 3.25569 0.0583257 2.91608 5.16507e-08 2.53441 5.16507e-08C 2.15273 5.16507e-08 1.81312 0.0583257 1.51626 0.17463C 1.21941 0.291282 0.964958 0.451677 0.75257 0.656859C 0.541225 0.861347 0.372635 1.10854 0.249235 1.39808C 0.125139 1.68763 0.0493601 2.00877 0.0208563 2.36219C 0.0139042 2.41844 0.0083426 2.49065 0.00486652 2.57918C 0.00139045 2.66736 3.97805e-08 2.75936 3.97805e-08 2.85449C 3.97805e-08 2.94996 0.00139045 3.04127 0.00486652 3.1298C 0.0083426 3.21799 0.0139042 3.29402 0.0208563 3.35755C 0.0493601 3.70334 0.125139 4.02309 0.249235 4.31611C 0.372635 4.60912 0.541225 4.85805 0.75257 5.06289C 0.964958 5.26737 1.21941 5.42846 1.51626 5.54477C 1.81312 5.66142 2.15273 5.7194 2.53441 5.7194Z"/>
<path id="path6_fill" d="M 4.92073 5.50762C 4.99825 5.50762 5.06534 5.4795 5.122 5.42291C 5.17831 5.36632 5.20681 5.29931 5.20681 5.22154L 5.20681 4.8827C 5.20681 4.80493 5.17831 4.73793 5.122 4.68134C 5.06534 4.62475 4.99825 4.59663 4.92073 4.59663L 3.08641 4.59663L 3.08641 0.285727C 3.08641 0.207959 3.05756 0.140954 3.00124 0.0847113C 2.94424 0.0281214 2.87715 -1.11248e-07 2.79928 -1.11248e-07L 2.40718 -1.11248e-07C 2.32967 -1.11248e-07 2.26223 0.0281214 2.20557 0.0847113C 2.14891 0.140954 2.12075 0.207959 2.12075 0.285727L 2.12075 4.59663L 0.286429 4.59663C 0.208217 4.59663 0.141129 4.62475 0.0851637 4.68134C 0.0285037 4.73793 -4.77366e-08 4.80493 -4.77366e-08 4.8827L -4.77366e-08 5.22154C -4.77366e-08 5.29931 0.0285037 5.36632 0.0851637 5.42291C 0.141129 5.4795 0.208217 5.50762 0.286429 5.50762L 4.92073 5.50762Z"/>
<path id="path7_fill" d="M 0.970433 3.35755L 3.95047 3.35755L 3.95047 3.38914C 3.95047 3.81999 3.81386 4.16404 3.54203 4.422C 3.26986 4.67995 2.9073 4.8084 2.45472 4.8084C 2.24963 4.8084 2.05879 4.77507 1.88221 4.70807C 1.70528 4.64072 1.5499 4.54559 1.41572 4.422C 1.28154 4.2984 1.17517 4.14842 1.09731 3.97205C 1.01979 3.79534 0.977385 3.60127 0.970433 3.38914L 0.970433 3.35755ZM 0.0263312 3.38914C 0.0544874 3.7141 0.132699 4.01788 0.259576 4.30014C 0.387148 4.58274 0.552957 4.82993 0.758045 5.04171C 0.963133 5.25349 1.20889 5.41944 1.49532 5.53956C 1.78175 5.65934 2.1012 5.7194 2.45472 5.7194C 2.83674 5.7194 3.17774 5.6576 3.47842 5.534C 3.77875 5.41041 4.03529 5.23231 4.24733 4.99935C 4.45902 4.7664 4.6217 4.48379 4.73502 4.15189C 4.84834 3.81999 4.90465 3.44921 4.90465 3.03988L 4.90465 2.75381C 4.90465 2.67604 4.8765 2.60904 4.81984 2.55279C 4.76318 2.49586 4.69609 2.46774 4.61823 2.46774L 0.970433 2.46774L 0.970433 2.4042C 0.984338 1.92406 1.13103 1.55535 1.41016 1.2974C 1.68963 1.03945 2.03794 0.910646 2.45472 0.910646C 2.84369 0.910646 3.13533 0.9655 3.32999 1.07521C 3.52431 1.18422 3.68142 1.30608 3.8017 1.44044C 3.85801 1.49703 3.90772 1.53556 3.95047 1.55674C 3.99288 1.57827 4.05615 1.58868 4.14131 1.58868L 4.45902 1.58868C 4.53723 1.58868 4.6078 1.56021 4.67141 1.50397C 4.73502 1.44738 4.7597 1.38038 4.7458 1.30296C 4.72425 1.17554 4.66411 1.03598 4.56539 0.88426C 4.46632 0.732544 4.32311 0.591243 4.13575 0.460704C 3.94873 0.330166 3.71514 0.220458 3.43601 0.132275C 3.15654 0.0440915 2.82979 1.64223e-07 2.45472 1.64223e-07C 2.1012 1.64223e-07 1.78314 0.0617975 1.50053 0.185393C 1.21758 0.308641 0.971824 0.47841 0.763607 0.69366C 0.554695 0.90891 0.387148 1.16304 0.259576 1.45641C 0.132699 1.74943 0.0544874 2.06883 0.0263312 2.41496C -0.00877712 2.73958 -0.00877712 3.06453 0.0263312 3.38914Z"/>
<path id="path8_fill" d="M 0.964611 3.38949L 3.17088 5.32778C 3.21328 5.36319 3.26751 5.40173 3.33495 5.44409C 3.40238 5.48679 3.48511 5.50797 3.58418 5.50797L 4.09343 5.50797C 4.16364 5.50797 4.22378 5.48297 4.27383 5.43367C 4.32285 5.38437 4.34753 5.32396 4.34753 5.25349C 4.34753 5.21807 4.34301 5.18474 4.33223 5.15315C 4.32111 5.12121 4.28809 5.08406 4.23108 5.04171L 1.66504 2.79617L 4.48587 0.455496C 4.55609 0.398907 4.59224 0.331902 4.59224 0.254481C 4.59224 0.183657 4.56687 0.123595 4.51751 0.074296C 4.4678 0.0246497 4.40766 1.61574e-07 4.3371 1.61574e-07L 3.78579 1.61574e-07C 3.68012 1.61574e-07 3.58974 0.0211778 3.51501 0.0635335C 3.44097 0.105889 3.38674 0.144773 3.35059 0.180185L 0.964611 2.16083L 0.964611 0.286074C 0.964611 0.208306 0.936454 0.141301 0.88049 0.0850585C 0.823482 0.0281215 0.756046 1.61574e-07 0.678877 1.61574e-07L 0.286429 1.61574e-07C 0.208217 1.61574e-07 0.141129 0.0281215 0.0851638 0.0850585C 0.0281562 0.141301 -3.31504e-08 0.208306 -3.31504e-08 0.286074L -3.31504e-08 5.22189C -3.31504e-08 5.29931 0.0281562 5.36632 0.0851638 5.42291C 0.141129 5.4795 0.208217 5.50797 0.286429 5.50797L 0.678877 5.50797C 0.756046 5.50797 0.823482 5.4795 0.88049 5.42291C 0.936454 5.36632 0.964611 5.29931 0.964611 5.22189L 0.964611 3.38949Z"/>
<path id="path9_fill" d="M 1.95147 0.910646C 2.20592 0.910646 2.43916 0.94953 2.6512 1.0273C 2.86359 1.10507 3.04539 1.21234 3.19729 1.35017C 3.3492 1.488 3.46599 1.65222 3.54733 1.84282C 3.62833 2.03342 3.66934 2.24519 3.66934 2.4785L 3.66934 2.74305L 2.41796 2.54168C 1.97302 2.47121 1.61916 2.35837 1.35741 2.20284C 1.09566 2.04765 0.965306 1.84629 0.965306 1.5991C 0.965306 1.52133 0.982686 1.44391 1.01814 1.36614C 1.05325 1.28837 1.10991 1.21408 1.18777 1.1436C 1.26564 1.07312 1.36645 1.01653 1.48985 0.974179C 1.61359 0.931824 1.76758 0.910646 1.95147 0.910646ZM 5.43667e-08 1.49321C 5.43667e-08 1.77546 0.05666 2.023 0.16998 2.23478C 0.282605 2.44656 0.438333 2.62674 0.636122 2.77499C 0.83391 2.92323 1.06576 3.04301 1.33064 3.13501C 1.59621 3.22666 1.87708 3.29749 2.17463 3.34679L 3.66934 3.59051L 3.66934 3.72799C 3.66934 4.08801 3.55116 4.35846 3.31409 4.5383C 3.07737 4.71849 2.7819 4.8084 2.42839 4.8084C 2.11797 4.8084 1.88229 4.75181 1.72344 4.63898C 1.56423 4.52615 1.42797 4.39179 1.315 4.2366C 1.27294 4.18001 1.22636 4.14113 1.177 4.11995C 1.12764 4.09877 1.06055 4.08801 0.975387 4.08801L 0.657673 4.08801C 0.579462 4.08801 0.510635 4.11648 0.450847 4.17307C 0.390363 4.22931 0.36464 4.29632 0.371245 4.37409C 0.385149 4.52962 0.447023 4.68828 0.556867 4.85076C 0.666363 5.01324 0.814792 5.15801 1.0025 5.28508C 1.18951 5.41215 1.40538 5.5163 1.64905 5.59754C 1.89307 5.67878 2.15273 5.7194 2.42839 5.7194C 2.74679 5.7194 3.04157 5.67322 3.31409 5.58157C 3.58592 5.48991 3.81951 5.35556 4.01452 5.17919C 4.20848 5.00248 4.36039 4.78375 4.47023 4.52233C 4.58008 4.26125 4.6343 3.96129 4.6343 3.6221L 4.6343 0.391616C 4.6343 0.313848 4.60615 0.246843 4.54949 0.1906C 4.49317 0.13401 4.42574 0.105889 4.34822 0.105889L 3.95612 0.105889C 3.87791 0.105889 3.81082 0.13401 3.75451 0.1906C 3.6975 0.246843 3.66934 0.313848 3.66934 0.391616L 3.66934 0.825935C 3.60573 0.691577 3.50666 0.573537 3.37249 0.471119C 3.23796 0.368702 3.08397 0.282255 2.91121 0.211431C 2.73776 0.140954 2.55735 0.088183 2.37034 0.0527709C 2.18263 0.0173589 2.00778 3.24472e-08 1.8451 3.24472e-08C 1.5698 3.24472e-08 1.31674 0.0385366 1.08697 0.116304C 0.857548 0.194072 0.662887 0.298225 0.503683 0.428764C 0.344827 0.559302 0.221078 0.716227 0.132786 0.90023C 0.0441462 1.08389 5.43667e-08 1.28143 5.43667e-08 1.49321Z"/>
<path id="path10_fill" d="M 4.24185 0C 4.16399 0 4.0969 0.0277742 4.04059 0.0843641C 3.98358 0.140607 3.95543 0.208306 3.95543 0.28538L 3.95543 3.83423L 0.869366 0.116652C 0.812706 0.0381895 0.73519 0 0.636122 0L 0.275653 0C 0.197789 0 0.132438 0.0277742 0.0796021 0.0843641C 0.0264182 0.140607 -2.38683e-08 0.208306 -2.38683e-08 0.28538L -2.38683e-08 5.22155C -2.38683e-08 5.29931 0.0281563 5.36597 0.0848164 5.42256C 0.141129 5.47915 0.208564 5.50727 0.286081 5.50727L 0.67853 5.50727C 0.756394 5.50727 0.823482 5.47915 0.880142 5.42256C 0.936455 5.36597 0.964958 5.29931 0.964958 5.22155L 0.964958 1.6418L 4.05102 5.39097C 4.08647 5.42638 4.11984 5.45485 4.15182 5.47568C 4.18346 5.4972 4.2276 5.50727 4.28426 5.50727L 4.6343 5.50727C 4.71217 5.50727 4.77891 5.47915 4.83592 5.42256C 4.89223 5.36597 4.92038 5.29931 4.92038 5.22155L 4.92038 0.28538C 4.92038 0.208306 4.89223 0.140607 4.83592 0.0843641C 4.77891 0.0277742 4.71217 0 4.6343 0L 4.24185 0Z"/>
<path id="path11_fill" d="M 2.71481 2.11882L 4.40106 5.29584C 4.42192 5.33854 4.46293 5.38437 4.52272 5.43402C 4.58286 5.48297 4.67289 5.50831 4.79351 5.50831L 5.1432 5.50831C 5.22107 5.50831 5.28815 5.47985 5.34481 5.42325C 5.40113 5.36666 5.42963 5.29966 5.42963 5.22189L 5.42963 0.286421C 5.42963 0.208654 5.40113 0.141648 5.34481 0.0854056C 5.28815 0.0284686 5.22107 -5.69482e-08 5.1432 -5.69482e-08L 4.75075 -5.69482e-08C 4.67289 -5.69482e-08 4.6058 0.0284686 4.54949 0.0854056C 4.49283 0.141648 4.46467 0.208654 4.46467 0.286421L 4.46467 3.4742L 3.21328 1.16547C 3.17783 1.10159 3.13368 1.04188 3.0805 0.985289C 3.02766 0.928699 2.94806 0.90023 2.84204 0.90023L 2.58759 0.90023C 2.48157 0.90023 2.40197 0.928699 2.34878 0.985289C 2.29595 1.04188 2.25145 1.10159 2.21635 1.16547L 0.964958 3.4742L 0.964958 0.286421C 0.964958 0.208654 0.936802 0.141648 0.880142 0.0854056C 0.823482 0.0284686 0.756394 -5.69482e-08 0.67853 -5.69482e-08L 0.286081 -5.69482e-08C 0.208565 -5.69482e-08 0.141129 0.0284686 0.0848162 0.0854056C 0.0281562 0.141648 1.98903e-08 0.208654 1.98903e-08 0.286421L 1.98903e-08 5.22189C 1.98903e-08 5.29966 0.0281562 5.36666 0.0848162 5.42325C 0.141129 5.47985 0.208565 5.50831 0.286081 5.50831L 0.636122 5.50831C 0.756394 5.50831 0.846424 5.48297 0.90656 5.43402C 0.966696 5.38437 1.00737 5.33854 1.02857 5.29584L 2.71481 2.11882Z"/>
<path id="path12_fill" d="M 0.996938 1.28143C 1.07445 1.28143 1.14189 1.25331 1.1982 1.19672C 1.25486 1.14013 1.28337 1.07278 1.28337 0.995704L 1.28337 0.285727C 1.28337 0.207612 1.25486 0.140954 1.1982 0.0847112C 1.14189 0.0281213 1.07445 5.2975e-09 0.996938 5.2975e-09L 0.286429 5.2975e-09C 0.208565 5.2975e-09 0.141476 0.0281213 0.0848162 0.0847112C 0.0281562 0.140954 -1.06081e-08 0.207612 -1.06081e-08 0.285727L -1.06081e-08 0.995704C -1.06081e-08 1.07278 0.0281562 1.14013 0.0848162 1.19672C 0.141476 1.25331 0.208565 1.28143 0.286429 1.28143L 0.996938 1.28143Z"/>
<path id="path13_fill" d="M 5.46126 7.41432C 5.53947 7.41432 5.60621 7.38619 5.66287 7.32961C 5.71953 7.27302 5.74769 7.20566 5.74769 7.12824L 5.74769 0.285727C 5.74769 0.208306 5.71953 0.140954 5.66287 0.0847114C 5.60621 0.0284687 5.53947 -3.12553e-07 5.46126 -3.12553e-07L 5.02675 -3.12553e-07C 4.94854 -3.12553e-07 4.8818 0.0284687 4.82514 0.0847114C 4.76848 0.140954 4.74067 0.208306 4.74067 0.285727L 4.74067 3.27319L 1.00737 3.27319L 1.00737 0.285727C 1.00737 0.208306 0.978863 0.140954 0.92255 0.0847114C 0.86589 0.0284687 0.798802 -3.12553e-07 0.721286 -3.12553e-07L 0.286429 -3.12553e-07C 0.208564 -3.12553e-07 0.141476 0.0267324 0.0848162 0.0795033C 0.0281562 0.132274 -1.53818e-07 0.201362 -1.53818e-07 0.285727L -1.53818e-07 7.12824C -1.53818e-07 7.20566 0.0281562 7.27302 0.0848162 7.32961C 0.141476 7.38619 0.208564 7.41432 0.286429 7.41432L 0.721286 7.41432C 0.798802 7.41432 0.86589 7.38619 0.92255 7.32961C 0.978863 7.27302 1.00737 7.20566 1.00737 7.12824L 1.00737 4.22619L 4.74067 4.22619L 4.74067 7.12824C 4.74067 7.20566 4.76848 7.27302 4.82514 7.32961C 4.8818 7.38619 4.94854 7.41432 5.02675 7.41432L 5.46126 7.41432Z"/>
<path id="path14_fill" d="M 0.996591 1.28143C 1.07411 1.28143 1.14154 1.25331 1.1982 1.19672C 1.25486 1.14013 1.28302 1.07278 1.28302 0.995704L 1.28302 0.285727C 1.28302 0.207612 1.25486 0.140954 1.1982 0.0847112C 1.14154 0.0281213 1.07411 5.2975e-09 0.996591 5.2975e-09L 0.286081 5.2975e-09C 0.208217 5.2975e-09 0.141129 0.0281213 0.0844686 0.0847112C 0.0278086 0.140954 -3.58025e-08 0.207612 -3.58025e-08 0.285727L -3.58025e-08 0.995704C -3.58025e-08 1.07278 0.0278086 1.14013 0.0844686 1.19672C 0.141129 1.25331 0.208217 1.28143 0.286081 1.28143L 0.996591 1.28143Z"/>
<path id="path15_fill" d="M 1.9619 2.62674L 4.89918 2.62674L 3.4361 6.40785L 1.9619 2.62674ZM 5.27112 1.67339L 1.591 1.67339L 1.03935 0.264202C 1.01814 0.207612 0.97921 0.149633 0.922898 0.0895717C 0.866238 0.0298572 0.76717 5.2975e-09 0.625693 5.2975e-09L 0.233592 5.2975e-09C 0.16998 5.2975e-09 0.115058 0.0225665 0.0691738 0.0687411C 0.022942 0.114568 -1.85642e-08 0.169423 -1.85642e-08 0.232609C -1.85642e-08 0.268021 0.0142519 0.317667 0.0427558 0.380853L 2.64043 7.06401C 2.67623 7.14213 2.72907 7.21955 2.79963 7.29732C 2.87019 7.37509 2.97656 7.41397 3.11769 7.41397L 3.75416 7.41397C 3.89564 7.41397 4.00131 7.37509 4.07222 7.29732C 4.14279 7.21955 4.19597 7.14213 4.23143 7.06401L 6.81936 0.380853C 6.84717 0.317667 6.86177 0.268021 6.86177 0.232609C 6.86177 0.169423 6.83848 0.114568 6.7926 0.0687411C 6.74637 0.0225665 6.69179 5.2975e-09 6.62853 5.2975e-09L 6.23573 5.2975e-09C 6.0946 5.2975e-09 5.99553 0.0298572 5.93887 0.0895717C 5.88221 0.149633 5.84328 0.207612 5.82208 0.264202L 5.27112 1.67339Z"/>
<path id="path16_fill" d="M 0.996938 1.28143C 1.0748 1.28143 1.14154 1.25331 1.1982 1.19672C 1.25486 1.14013 1.28302 1.07278 1.28302 0.995704L 1.28302 0.285727C 1.28302 0.207612 1.25486 0.140954 1.1982 0.0847112C 1.14154 0.0281213 1.0748 5.2975e-09 0.996938 5.2975e-09L 0.286429 5.2975e-09C 0.208565 5.2975e-09 0.141476 0.0281213 0.0848162 0.0847112C 0.0281562 0.140954 -1.06081e-08 0.207612 -1.06081e-08 0.285727L -1.06081e-08 0.995704C -1.06081e-08 1.07278 0.0281562 1.14013 0.0848162 1.19672C 0.141476 1.25331 0.208565 1.28143 0.286429 1.28143L 0.996938 1.28143Z"/>
<path id="path17_fill" d="M 5.46126 7.41432C 5.53913 7.41432 5.60621 7.38619 5.66287 7.32961C 5.71953 7.27302 5.74769 7.20566 5.74769 7.12824L 5.74769 0.285727C 5.74769 0.208306 5.71953 0.140954 5.66287 0.0847114C 5.60621 0.0284687 5.53913 -3.12553e-07 5.46126 -3.12553e-07L 5.02675 -3.12553e-07C 4.94854 -3.12553e-07 4.8818 0.0284687 4.82514 0.0847114C 4.76848 0.140954 4.74032 0.208306 4.74032 0.285727L 4.74032 3.27319L 1.00737 3.27319L 1.00737 0.285727C 1.00737 0.208306 0.978515 0.140954 0.92255 0.0847114C 0.86589 0.0284687 0.798802 -3.12553e-07 0.721286 -3.12553e-07L 0.286081 -3.12553e-07C 0.208565 -3.12553e-07 0.141128 0.0267324 0.0844685 0.0795033C 0.0278085 0.132274 -1.53818e-07 0.201362 -1.53818e-07 0.285727L -1.53818e-07 7.12824C -1.53818e-07 7.20566 0.0278085 7.27302 0.0844685 7.32961C 0.141128 7.38619 0.208565 7.41432 0.286081 7.41432L 0.721286 7.41432C 0.798802 7.41432 0.86589 7.38619 0.92255 7.32961C 0.978515 7.27302 1.00737 7.20566 1.00737 7.12824L 1.00737 4.22619L 4.74032 4.22619L 4.74032 7.12824C 4.74032 7.20566 4.76848 7.27302 4.82514 7.32961C 4.8818 7.38619 4.94854 7.41432 5.02675 7.41432L 5.46126 7.41432Z"/>
<path id="path18_fill" d="M 0.970346 3.35755L 3.95039 3.35755L 3.95039 3.38914C 3.95039 3.81999 3.81412 4.16439 3.54195 4.42234C 3.26942 4.6803 2.90687 4.8091 2.45498 4.8091C 2.24989 4.8091 2.05905 4.77508 1.88247 4.70842C 1.70519 4.64072 1.54981 4.54559 1.41528 4.42234C 1.28145 4.2984 1.17543 4.14842 1.09757 3.9724C 1.01971 3.79569 0.977298 3.60127 0.970346 3.38914L 0.970346 3.35755ZM 0.026592 3.38914C 0.0547482 3.7141 0.132612 4.01788 0.259837 4.30014C 0.386713 4.58274 0.55287 4.82993 0.758306 5.04205C 0.963047 5.25349 1.2088 5.41944 1.49523 5.53956C 1.78166 5.65934 2.10146 5.71974 2.45498 5.71974C 2.837 5.71974 3.178 5.6576 3.47833 5.5347C 3.77901 5.41041 4.03485 5.23231 4.24759 4.99935C 4.45928 4.76674 4.62196 4.48379 4.73528 4.15189C 4.84791 3.81999 4.90422 3.44955 4.90422 3.03988L 4.90422 2.75416C 4.90422 2.67604 4.87606 2.60938 4.8194 2.55279C 4.76309 2.4962 4.69635 2.46808 4.61849 2.46808L 0.970346 2.46808L 0.970346 2.4042C 0.984598 1.92406 1.13129 1.55535 1.41042 1.2974C 1.68955 1.03945 2.0375 0.910993 2.45498 0.910993C 2.84395 0.910993 3.13559 0.9655 3.32991 1.07555C 3.52422 1.18422 3.68168 1.30608 3.80161 1.44079C 3.85827 1.49703 3.90763 1.53556 3.95039 1.55709C 3.99245 1.57827 4.05641 1.58868 4.14122 1.58868L 4.45928 1.58868C 4.53715 1.58868 4.60771 1.56056 4.67098 1.50397C 4.73528 1.44738 4.75927 1.38072 4.74536 1.30261C 4.72451 1.17589 4.66437 1.03598 4.5653 0.88426C 4.46623 0.732197 4.32302 0.591243 4.13566 0.460704C 3.9483 0.330166 3.71505 0.220805 3.43593 0.132275C 3.15645 0.0440915 2.8297 1.64223e-07 2.45498 1.64223e-07C 2.10146 1.64223e-07 1.7834 0.0617977 1.5001 0.185046C 1.21784 0.308988 0.972084 0.47841 0.763172 0.69366C 0.554955 0.90891 0.386713 1.16374 0.259837 1.45641C 0.132612 1.74908 0.0547482 2.06883 0.026592 2.41496C -0.00886396 2.73992 -0.00886396 3.06453 0.026592 3.38914Z"/>
<path id="path19_fill" d="M 0.965306 3.38949L 3.17122 5.32743C 3.21328 5.36319 3.26855 5.40173 3.33564 5.44409C 3.40238 5.48644 3.48546 5.50797 3.58488 5.50797L 4.09377 5.50797C 4.16399 5.50797 4.22482 5.48297 4.27418 5.43367C 4.32354 5.38402 4.34822 5.32396 4.34822 5.25349C 4.34822 5.21842 4.34301 5.18474 4.33293 5.1528C 4.32146 5.12086 4.28878 5.08406 4.23177 5.04171L 1.66504 2.79617L 4.48657 0.455496C 4.55679 0.398907 4.59259 0.331554 4.59259 0.254134C 4.59259 0.18331 4.56721 0.123248 4.5182 0.0739487C 4.46849 0.0249967 4.40836 1.61574e-07 4.33745 1.61574e-07L 3.78649 1.61574e-07C 3.68047 1.61574e-07 3.59044 0.0208305 3.5157 0.0631861C 3.44201 0.105889 3.38674 0.144773 3.35128 0.179838L 0.965306 2.16083L 0.965306 0.286074C 0.965306 0.208306 0.93715 0.141301 0.88049 0.0847112C 0.82383 0.0281213 0.756394 1.61574e-07 0.678877 1.61574e-07L 0.286776 1.61574e-07C 0.208564 1.61574e-07 0.141476 0.0281213 0.0851638 0.0847112C 0.0285038 0.141301 1.72382e-08 0.208306 1.72382e-08 0.286074L 1.72382e-08 5.22155C 1.72382e-08 5.29931 0.0285038 5.36632 0.0851638 5.42291C 0.141476 5.47985 0.208564 5.50797 0.286776 5.50797L 0.678877 5.50797C 0.756394 5.50797 0.82383 5.47985 0.88049 5.42291C 0.93715 5.36632 0.965306 5.29931 0.965306 5.22155L 0.965306 3.38949Z"/>
<path id="path20_fill" d="M 0.965306 5.22189C 0.958006 5.116 0.95453 4.97644 0.95453 4.80354C 0.95453 4.63065 0.958006 4.49143 0.965306 4.3852C 0.98651 3.88387 1.13668 3.49712 1.41581 3.22528C 1.69493 2.95344 2.05749 2.81769 2.50277 2.81769C 2.96961 2.81769 3.33703 2.96593 3.60573 3.26242C 3.87443 3.55891 4.02286 3.96129 4.05102 4.46991C 4.05762 4.66745 4.05762 4.86569 4.05102 5.06323C 4.02286 5.5715 3.87443 5.97423 3.60573 6.27071C 3.33703 6.5672 2.96961 6.71545 2.50277 6.71545C 2.06444 6.71545 1.70362 6.58144 1.42102 6.31342C 1.13841 6.0447 0.98651 5.68086 0.965306 5.22189ZM 2.60879 1.9067C 2.17046 1.9067 1.82042 1.98273 1.55902 2.13445C 1.29727 2.28616 1.09913 2.45072 0.965306 2.62709L 0.965306 0.286421C 0.965306 0.209001 0.936802 0.141648 0.88049 0.0850586C 0.82383 0.0284687 0.756046 -1.2714e-07 0.678877 -1.2714e-07L 0.286429 -1.2714e-07C 0.208565 -1.2714e-07 0.141129 0.0284687 0.0851638 0.0850586C 0.0285038 0.141648 1.72382e-08 0.209001 1.72382e-08 0.286421L 1.72382e-08 7.23448C 1.72382e-08 7.31225 0.0285038 7.3789 0.0851638 7.43549C 0.141129 7.49208 0.208565 7.52055 0.286429 7.52055L 0.678877 7.52055C 0.756046 7.52055 0.82383 7.49208 0.88049 7.43549C 0.936802 7.3789 0.965306 7.31225 0.965306 7.23448L 0.965306 6.9064C 1.10643 7.09665 1.30805 7.26434 1.5698 7.40911C 1.8312 7.55388 2.17776 7.62609 2.60879 7.62609C 2.94145 7.62609 3.25048 7.56812 3.53656 7.45146C 3.82333 7.33516 4.07222 7.16747 4.28461 6.94875C 4.49665 6.72968 4.66594 6.46479 4.79351 6.15441C 4.92073 5.84334 4.99512 5.49408 5.01632 5.10524C 5.02328 4.99935 5.02675 4.88478 5.02675 4.76119C 5.02675 4.63759 5.02328 4.52302 5.01632 4.41714C 4.99512 4.02864 4.92073 3.67938 4.79351 3.36831C 4.66594 3.05794 4.49665 2.79478 4.28461 2.57987C 4.07222 2.36428 3.82333 2.19798 3.53656 2.08167C 3.25048 1.96502 2.94145 1.9067 2.60879 1.9067Z"/>
<path id="path21_fill" d="M 1.95112 0.910993C 2.20557 0.910993 2.43881 0.94953 2.6512 1.02764C 2.86324 1.10541 3.04504 1.21269 3.19695 1.35087C 3.3492 1.488 3.46599 1.65222 3.54699 1.84316C 3.62833 2.03376 3.669 2.24519 3.669 2.47885L 3.669 2.74305L 2.41831 2.54203C 1.97267 2.47155 1.61881 2.35837 1.35741 2.20319C 1.09566 2.04765 0.964958 1.84629 0.964958 1.59945C 0.964958 1.52168 0.982339 1.44391 1.01779 1.36684C 1.05325 1.28837 1.10956 1.21443 1.18777 1.14395C 1.26529 1.07347 1.3661 1.01688 1.48985 0.974874C 1.61359 0.932518 1.76758 0.910993 1.95112 0.910993ZM 2.91724e-08 1.49321C 2.91724e-08 1.77581 0.0563124 2.023 0.169632 2.23513C 0.282257 2.44656 0.437985 2.62674 0.636122 2.77499C 0.83391 2.92358 1.06576 3.0437 1.33064 3.13536C 1.59621 3.22701 1.87673 3.29749 2.17428 3.34748L 3.669 3.59051L 3.669 3.72834C 3.669 4.08836 3.55081 4.35846 3.31374 4.53865C 3.07702 4.71883 2.7819 4.8091 2.42804 4.8091C 2.11762 4.8091 1.88195 4.75216 1.72344 4.63898C 1.56458 4.5265 1.42762 4.39179 1.315 4.23695C 1.27259 4.18036 1.22601 4.14148 1.17665 4.1203C 1.12729 4.09947 1.0602 4.08836 0.975387 4.08836L 0.657326 4.08836C 0.579462 4.08836 0.510635 4.11683 0.450847 4.17342C 0.390363 4.23001 0.364293 4.29667 0.371245 4.37478C 0.384801 4.52997 0.446676 4.68828 0.55652 4.85145C 0.666363 5.01359 0.814792 5.15836 1.00215 5.28577C 1.18951 5.41249 1.40538 5.51665 1.6487 5.59789C 1.89272 5.67878 2.15273 5.71974 2.42804 5.71974C 2.74645 5.71974 3.04191 5.67357 3.31374 5.58192C 3.58592 5.48991 3.81916 5.3559 4.01417 5.17954C 4.20814 5.00282 4.36039 4.7841 4.46988 4.52268C 4.57973 4.2616 4.6343 3.96129 4.6343 3.62279L 4.6343 0.391616C 4.6343 0.314195 4.60615 0.246843 4.54949 0.1906C 4.49283 0.134358 4.42574 0.106236 4.34822 0.106236L 3.95577 0.106236C 3.87756 0.106236 3.81082 0.134358 3.75416 0.1906C 3.69715 0.246843 3.669 0.314195 3.669 0.391616L 3.669 0.826282C 3.60538 0.691924 3.50666 0.573537 3.37214 0.471467C 3.23762 0.369049 3.08397 0.282602 2.91121 0.211778C 2.73776 0.140954 2.55735 0.0881831 2.36999 0.052771C 2.18228 0.0177061 2.00778 -2.51631e-08 1.8451 -2.51631e-08C 1.56945 -2.51631e-08 1.31639 0.0388838 1.08697 0.116652C 0.8572 0.194419 0.66254 0.298225 0.503683 0.429111C 0.344479 0.55965 0.220731 0.716574 0.132438 0.90023C 0.0441462 1.08389 2.91724e-08 1.28178 2.91724e-08 1.49321Z"/>
<path id="path22_fill" d="M 0.981814 2.48891C 1.00997 2.20666 1.07184 1.96572 1.16744 1.76852C 1.26268 1.57028 1.37948 1.40885 1.51748 1.28108C 1.65548 1.15402 1.80877 1.06097 1.97875 1.00091C 2.14804 0.94085 2.32149 0.910993 2.49808 0.910993C 2.83769 0.910993 3.1276 0.974179 3.36744 1.10159C 3.60834 1.22797 3.7957 1.44009 3.92953 1.73693C 3.97923 1.84941 4.03068 1.92579 4.08386 1.96398C 4.1367 2.00356 4.2024 2.02231 4.27957 2.02231L 4.59797 2.02231C 4.67584 2.02231 4.74501 1.99419 4.80515 1.93829C 4.86494 1.88135 4.89136 1.81435 4.8844 1.73693C 4.87745 1.56716 4.82253 1.38211 4.71999 1.1804C 4.61744 0.97904 4.46519 0.792258 4.26358 0.619017C 4.06196 0.446123 3.81447 0.299614 3.52178 0.179838C 3.2284 0.0600617 2.8867 -5.16507e-08 2.49808 -5.16507e-08C 2.10945 -5.16507e-08 1.76463 0.0631863 1.46429 0.1906C 1.16327 0.31732 0.909164 0.490214 0.7006 0.70963C 0.492383 0.928352 0.329702 1.18596 0.212906 1.48279C 0.0964578 1.77928 0.0311075 2.09695 0.0168556 2.4358C 0.00955585 2.54897 0.00434172 2.68785 0.00121325 2.85449C -0.00261043 3.01975 0.00260371 3.16313 0.0168556 3.28325C 0.0450118 3.6221 0.117662 3.94011 0.23411 4.23626C 0.350906 4.53309 0.511153 4.79105 0.716242 5.01011C 0.921678 5.22849 1.17265 5.40173 1.46916 5.5288C 1.76671 5.65586 2.10945 5.7194 2.49808 5.7194C 2.8867 5.7194 3.2284 5.65934 3.52178 5.53956C 3.81447 5.41874 4.06196 5.27258 4.26358 5.10003C 4.46519 4.92644 4.61744 4.73932 4.71999 4.5383C 4.82253 4.33694 4.87745 4.15189 4.8844 3.98247C 4.89136 3.9047 4.86494 3.8377 4.80515 3.78111C 4.74501 3.72452 4.67584 3.6964 4.59797 3.6964L 4.27957 3.6964C 4.2024 3.6964 4.1367 3.71514 4.08386 3.75472C 4.03068 3.79361 3.97923 3.86929 3.92953 3.98247C 3.7957 4.27861 3.60834 4.49074 3.36744 4.6178C 3.1276 4.74522 2.83769 4.80875 2.49808 4.80875C 2.32149 4.80875 2.14665 4.77855 1.97354 4.71849C 1.80008 4.65877 1.6447 4.56469 1.50705 4.43762C 1.3687 4.3109 1.25225 4.14807 1.15701 3.95088C 1.06142 3.75299 1.00337 3.51274 0.981814 3.23014C 0.960262 2.96871 0.960262 2.72187 0.981814 2.48891Z"/>
<path id="path23_fill" d="M 4.08265 2.41496C 4.0969 2.53509 4.1042 2.6816 4.1042 2.85449C 4.1042 3.02773 4.0969 3.17771 4.08265 3.30478C 4.0611 3.51656 4.01556 3.7141 3.945 3.89776C 3.87374 4.08142 3.77502 4.24042 3.64814 4.37443C 3.52057 4.50844 3.36519 4.61433 3.18096 4.6921C 2.99742 4.76987 2.7819 4.80875 2.53441 4.80875C 2.28691 4.80875 2.07139 4.76987 1.88751 4.6921C 1.70328 4.61433 1.54824 4.50844 1.42102 4.37443C 1.29379 4.24042 1.19438 4.08142 1.12381 3.89776C 1.0529 3.7141 1.00702 3.51656 0.986162 3.30478C 0.971911 3.17771 0.964611 3.02773 0.964611 2.85449C 0.964611 2.6816 0.971911 2.53509 0.986162 2.41496C 1.00702 2.20319 1.0529 2.0053 1.12381 1.82199C 1.19438 1.63833 1.29379 1.47932 1.42102 1.34496C 1.54824 1.21095 1.70328 1.10507 1.88751 1.02764C 2.07139 0.94953 2.28691 0.910993 2.53441 0.910993C 2.7819 0.910993 2.99742 0.94953 3.18096 1.02764C 3.36519 1.10507 3.52057 1.21095 3.64814 1.34496C 3.77502 1.47932 3.87374 1.63833 3.945 1.82199C 4.01556 2.0053 4.0611 2.20319 4.08265 2.41496ZM 2.53441 5.7194C 2.91608 5.7194 3.25569 5.66142 3.55255 5.54477C 3.84975 5.42846 4.1042 5.26737 4.31589 5.06289C 4.52794 4.85805 4.69618 4.60912 4.81993 4.31611C 4.94367 4.02309 5.0191 3.70334 5.04761 3.35755C 5.05491 3.29402 5.05873 3.21799 5.05873 3.1298L 5.05873 2.85449L 5.05873 2.57918C 5.05873 2.49065 5.05491 2.41844 5.04761 2.36185C 5.01215 2.00877 4.93429 1.68763 4.81402 1.39808C 4.69444 1.10854 4.52794 0.861347 4.31589 0.656512C 4.1042 0.451678 3.84975 0.291282 3.55255 0.174977C 3.25569 0.0583257 2.91608 5.16507e-08 2.53441 5.16507e-08C 2.15239 5.16507e-08 1.81312 0.0583257 1.51592 0.174977C 1.21941 0.291282 0.964611 0.451678 0.75257 0.656512C 0.540877 0.861347 0.372288 1.10854 0.249235 1.39808C 0.125139 1.68763 0.0490125 2.00877 0.0208563 2.36185C 0.0139042 2.41844 0.00834274 2.49065 0.00521427 2.57918C 0.00139059 2.66736 3.97805e-08 2.75902 3.97805e-08 2.85449C 3.97805e-08 2.94962 0.00139059 3.04127 0.00521427 3.1298C 0.00834274 3.21799 0.0139042 3.29402 0.0208563 3.35755C 0.0490125 3.70334 0.125139 4.02309 0.249235 4.31611C 0.372288 4.60912 0.540877 4.85805 0.75257 5.06289C 0.964611 5.26737 1.21941 5.42846 1.51592 5.54477C 1.81312 5.66142 2.15239 5.7194 2.53441 5.7194Z"/>
<path id="path24_fill" d="M 0.964958 2.32019L 0.964958 0.922103L 2.75688 0.922103C 3.11074 0.922103 3.39334 0.972791 3.60573 1.07555C 3.81743 1.17797 3.92379 1.36267 3.92379 1.63173C 3.92379 1.89941 3.82333 2.08133 3.62172 2.17715C 3.42011 2.27193 3.14272 2.32019 2.78885 2.32019L 0.964958 2.32019ZM 0.964958 4.58656L 0.964958 3.24159L 2.70439 3.24159C 3.05756 3.24159 3.33008 3.2895 3.52092 3.38428C 3.71141 3.4801 3.807 3.66133 3.807 3.93005C 3.807 4.19772 3.70237 4.37513 3.49415 4.45914C 3.28593 4.5442 3.00437 4.58656 2.6512 4.58656L 0.964958 4.58656ZM 0.211693 -3.04606e-08C 0.155381 -3.04606e-08 0.105673 0.021525 0.0632645 0.0638806C 0.0208564 0.106236 -7.9561e-09 0.155535 -7.9561e-09 0.212125L -7.9561e-09 5.29619C -7.9561e-09 5.35243 0.0208564 5.40208 0.0632645 5.44478C 0.105673 5.48679 0.155381 5.50831 0.211693 5.50831L 2.84204 5.50831C 3.44966 5.50831 3.92379 5.37396 4.26271 5.10524C 4.60232 4.83757 4.77196 4.48102 4.77196 4.03593C 4.77196 3.87346 4.75249 3.73215 4.71356 3.61238C 4.67497 3.49226 4.62527 3.38602 4.56513 3.29471C 4.50534 3.20271 4.43791 3.12147 4.36352 3.05065C 4.28948 2.97982 4.2137 2.91664 4.13583 2.86005C 4.42539 2.69757 4.62353 2.51079 4.72955 2.29831C 4.83592 2.08688 4.88875 1.84351 4.88875 1.5682C 4.88875 1.05924 4.71356 0.671094 4.36352 0.402726C 4.01382 0.134358 3.5456 -3.04606e-08 2.95849 -3.04606e-08L 0.211693 -3.04606e-08Z"/>
<path id="path25_fill" d="M 1.95147 0.910993C 2.20557 0.910993 2.43881 0.94953 2.6512 1.02764C 2.86359 1.10541 3.04504 1.21269 3.19729 1.35087C 3.3492 1.488 3.46599 1.65222 3.54733 1.84316C 3.62833 2.03376 3.669 2.24519 3.669 2.47885L 3.669 2.74305L 2.41831 2.54203C 1.97267 2.47155 1.61916 2.35837 1.35775 2.20319C 1.09601 2.04765 0.965306 1.84629 0.965306 1.59945C 0.965306 1.52168 0.982686 1.44391 1.01779 1.36684C 1.0536 1.28837 1.10991 1.21443 1.18777 1.14395C 1.26529 1.07347 1.3661 1.01688 1.49019 0.974874C 1.61359 0.932518 1.76758 0.910993 1.95147 0.910993ZM 5.43667e-08 1.49321C 5.43667e-08 1.77581 0.05666 2.023 0.16998 2.23513C 0.282257 2.44656 0.437985 2.62674 0.636469 2.77499C 0.83391 2.92358 1.06576 3.0437 1.33099 3.13536C 1.59621 3.22701 1.87673 3.29749 2.17428 3.34748L 3.669 3.59051L 3.669 3.72834C 3.669 4.08836 3.55081 4.35846 3.31409 4.53865C 3.07702 4.71883 2.7819 4.8091 2.42839 4.8091C 2.11762 4.8091 1.88229 4.75216 1.72344 4.63898C 1.56458 4.5265 1.42762 4.39179 1.31535 4.23695C 1.27294 4.18036 1.22636 4.14148 1.17665 4.1203C 1.12764 4.09947 1.06055 4.08836 0.975387 4.08836L 0.657326 4.08836C 0.579462 4.08836 0.510635 4.11683 0.450847 4.17342C 0.390711 4.23001 0.364293 4.29667 0.371592 4.37478C 0.384801 4.52997 0.447023 4.68828 0.55652 4.85145C 0.666363 5.01359 0.814792 5.15836 1.00215 5.28577C 1.18951 5.41249 1.40538 5.51665 1.64905 5.59789C 1.89307 5.67878 2.15308 5.71974 2.42839 5.71974C 2.74679 5.71974 3.04191 5.67357 3.31409 5.58192C 3.58592 5.48991 3.81951 5.3559 4.01417 5.17954C 4.20814 5.00282 4.36039 4.7841 4.46988 4.52268C 4.57973 4.2616 4.6343 3.96129 4.6343 3.62279L 4.6343 0.391616C 4.6343 0.314195 4.60615 0.246843 4.54949 0.1906C 4.49283 0.134358 4.42574 0.106236 4.34822 0.106236L 3.95577 0.106236C 3.87791 0.106236 3.81082 0.134358 3.75416 0.1906C 3.69715 0.246843 3.669 0.314195 3.669 0.391616L 3.669 0.826282C 3.60573 0.691924 3.50666 0.573537 3.37249 0.471467C 3.23762 0.369049 3.08432 0.282602 2.91121 0.211778C 2.73776 0.140954 2.55735 0.0881831 2.37034 0.052771C 2.18263 0.0177061 2.00813 -2.51631e-08 1.8451 -2.51631e-08C 1.56945 -2.51631e-08 1.31674 0.0388838 1.08697 0.116652C 0.8572 0.194419 0.662887 0.298225 0.504031 0.429111C 0.344827 0.55965 0.220731 0.716574 0.132439 0.90023C 0.0441462 1.08389 5.43667e-08 1.28178 5.43667e-08 1.49321Z"/>
<path id="path26_fill" d="M 5.21377 -2.9666e-07L 4.03109e-07 -2.9666e-07L 4.03109e-07 21.2254L 5.21377 21.2254L 5.21377 -2.9666e-07Z"/>
<path id="path27_fill" d="M 5.21376 -3.8142e-07L -9.54733e-07 -3.8142e-07L -9.54733e-07 37.1466L 5.21376 37.1466L 5.21376 -3.8142e-07Z"/>
<path id="path28_fill" d="M 5.21377 -6.1451e-07L -2.12163e-06 -6.1451e-07L -2.12163e-06 45.9895L 5.21377 45.9895L 5.21377 -6.1451e-07Z"/>
<path id="path29_fill" d="M 5.21376 -2.9666e-07L 1.8246e-06 -2.9666e-07L 1.8246e-06 21.2254L 5.21376 21.2254L 5.21376 -2.9666e-07Z"/>
</defs>
</svg>
